<?xml version="1.0" encoding="UTF-8"?>
<!DOCTYPE svg PUBLIC "-//W3C//DTD SVG 1.1//EN" "http://www.w3.org/Graphics/SVG/1.1/DTD/svg11.dtd">
<!-- Creator: CorelDRAW X7 -->
<svg xmlns="http://www.w3.org/2000/svg" xml:space="preserve" width="297mm" height="210mm" version="1.1" style="shape-rendering:geometricPrecision; text-rendering:geometricPrecision; image-rendering:optimizeQuality; fill-rule:evenodd; clip-rule:evenodd"
viewBox="0 0 29700 21000"
 xmlns:xlink="http://www.w3.org/1999/xlink">
 <defs>
  <style type="text/css">
   <![CDATA[
    .fil7 {fill:#252324}
    .fil6 {fill:#5CE1E6}
    .fil1 {fill:#89C8A7}
    .fil3 {fill:#92AA72}
    .fil0 {fill:#B3934B}
    .fil9 {fill:#D2DE8E}
    .fil5 {fill:#D3851C}
    .fil4 {fill:#F4F5F3}
    .fil2 {fill:#F9ECB7}
    .fil8 {fill:#FEDE59}
   ]]>
  </style>
 </defs>
 <g id="Layer_x0020_1">
  <metadata id="CorelCorpID_0Corel-Layer"/>
  <g id="_1412530020336">
   <g>
    <path class="fil0" d="M8584 7596c137,11 223,44 324,76 148,48 197,100 304,125 32,-23 -1,-36 -6,-42 -2,-2 -8,-7 -11,-10 -3,-3 -10,-8 -13,-11l-29 -23c-156,-36 -372,-151 -551,-151l-18 36zm730 212c-14,-24 -13,-9 -36,-19 -47,40 -27,-4 139,148 76,69 27,38 95,50 -85,-117 -120,-106 -198,-179zm186 220c78,14 27,27 59,-12 0,-1 20,-60 -54,9l-5 3zm124 126l15 54c50,-42 52,22 33,-78 0,-2 -24,-22 -35,-67 -63,-25 -17,-28 -62,1l17 25c2,3 6,9 9,13 25,49 -10,-43 23,52zm102 669l-60 13 60 -13 98 -9c-70,-47 -49,75 -60,-74l8 -353c102,29 27,-11 147,112l22 -180c-17,-69 0,-39 -70,-78 -135,7 -76,-14 -108,59l-48 -107c-19,18 -72,-7 -14,123 59,133 42,364 25,507z"/>
    <path class="fil0" d="M7972 8537c123,-3 177,-22 208,-81 -100,-33 -179,9 -208,81z"/>
    <path class="fil0" d="M9858 7604c133,17 -93,-7 68,14 -3,-27 -6,-53 -13,-86l-70 10 15 62zm90 64l6 12c0,-37 -10,-24 52,-23 -8,-40 -23,-32 30,-32 59,-5 8,3 34,-25l-35 -39c-6,5 -15,5 -19,14 -3,9 -13,11 -17,14 -42,34 -45,15 -51,79z"/>
   </g>
   <g>
    <path class="fil1" d="M9314 7808c78,73 113,62 198,179 -68,-12 -19,19 -95,-50 -166,-152 -186,-108 -139,-148 -41,-44 -1,-10 -55,-44 -4,-3 -12,-7 -16,-9 -4,-3 -14,-7 -17,-9l-37 -16 29 23c3,3 10,8 13,11 3,3 9,8 11,10 5,6 38,19 6,42 34,71 -13,9 100,78 126,76 70,100 193,150 74,-69 54,-10 54,-9 -32,39 19,26 -59,12l124 126c-33,-95 2,-3 -23,-52 -3,-4 -7,-10 -9,-13l-17 -25c45,-29 -1,-26 62,-1 -29,-39 28,-33 -29,-38 -75,-97 -22,-10 37,-45 -70,-29 -83,35 -53,-51 18,-50 24,-20 52,-17 168,21 -66,100 200,36 -34,52 -41,49 -43,93 -23,19 -39,14 15,14l44 -38c5,-3 12,-6 17,-9l160 -33 82 85 -32 41c-48,-60 12,-16 -78,-50 -56,22 -38,11 -63,45 -52,29 -48,-58 -23,63 12,56 13,30 40,50l9 35c-24,44 -34,32 36,32 -3,-46 18,-42 -36,-32l-9 -35 -17 -113c78,-11 64,-9 141,5l9 224 -52 -18c14,-37 28,-30 -21,-30l21 30 6 151c-41,5 -29,-3 -20,30 -80,-39 -66,-136 -89,-169l-22 180c-120,-123 -45,-83 -147,-112l-8 353c11,149 -10,27 60,74l226 -41 -254 24 -4 -346c131,36 33,-30 117,56l28 86c-42,3 -36,-6 -23,22l-23 41 59 -14 13 -30c41,-1 31,6 24,-23 63,-3 28,21 39,-61l-39 61c-47,-4 -35,-10 -24,23l-13 30 -36 -27 23 -22c64,-82 37,-14 93,-105 43,2 28,6 20,-30 25,-43 40,-37 59,-57 31,-32 25,-30 35,-68 -29,-87 -29,-152 8,-237 -1,-68 4,-22 -33,-36 4,-44 -3,-77 23,-113 42,-14 -61,-18 82,-15 -13,35 -25,28 25,28 1,-41 20,-41 -25,-28 -5,-3 -13,-5 -17,-6l-126 -17c-67,-106 48,-27 22,-120 -61,78 -33,51 -152,80 -133,31 -66,-42 -107,79 43,-85 49,-90 -28,-155 -85,31 47,-59 -42,27 -44,42 -11,35 -15,74l-134 -23 -81 83c-2,3 -9,17 -10,14 -2,-4 -7,10 -12,14l-24 -43c-3,-4 -6,-10 -9,-14l-96 -87c-50,-27 -28,-15 -79,-30zm598 167c18,-24 -1,-12 52,-38 76,-39 4,-22 84,-21 -23,46 -60,53 -136,59z"/>
    <path class="fil1" d="M11349 8523c4,5 10,6 12,15 2,10 9,12 11,16 11,20 19,40 27,60l-95 -6c52,65 0,27 57,22 5,-1 16,-3 21,-4 5,-1 13,-7 17,-12 4,-5 12,-17 13,-14 1,4 9,-10 11,-12 4,-11 7,-27 7,-33 -19,38 -33,35 22,22 -16,39 -19,27 37,14l23 28c44,-44 65,-65 60,-108l54 25c-8,33 -11,20 42,9 -12,34 -12,15 30,15 51,1 25,2 48,-10 61,14 53,23 33,-19l1 -46c21,-39 24,-27 -35,-17 9,-32 13,-21 -38,-12l-65 -15c6,-36 -53,-22 -102,-24 7,3 17,3 20,9 4,7 16,7 21,8 42,9 28,7 61,7l65 15c-5,32 -11,22 38,12 -7,33 -14,24 35,17l-1 46c-49,-5 -41,-14 -33,19l-78 -5c13,-37 14,-23 -42,-9l-26 -22c-32,-28 -12,-8 -37,-33 -27,-28 -38,-45 -66,-67l-67 -8 57 -19c-104,-104 -37,-23 -123,-53 37,-86 26,-95 129,-112 1,87 -14,43 -51,112 78,-17 90,-27 202,-45l-7 65c71,0 53,12 52,-39 -1,-98 18,-3 -45,-26 -6,-4 -18,-12 -21,-7 -4,5 -17,-4 -22,-4 -50,-1 10,-27 -108,25 1,-1 47,-73 49,-77 -41,-12 -104,-78 -169,42l-65 -30c19,-45 25,-34 -38,-19 -45,-21 -18,-8 -29,13 -18,7 -44,-29 -72,64 -11,37 4,73 12,108 194,8 21,6 79,-23 57,21 32,17 23,-31 -56,0 -43,-8 -23,31 -70,-55 -60,-72 -19,-149l29 -13c-3,31 -11,22 38,19l-6 73 -27 37c64,0 47,9 27,-37 47,63 6,36 76,70l-190 38c-3,2 -10,7 -12,9 -3,1 -6,6 -10,9l-46 -21c47,-17 45,22 34,-43 -51,15 -46,-24 -34,43l-65 32c8,49 -33,40 23,42l-117 2c-96,2 -63,-8 -68,-91 -73,120 48,97 -12,162 -134,146 30,-94 -46,45 86,-7 131,-29 191,-61l185 -81c68,-25 63,-26 132,-3l43 15c74,-15 45,-9 101,19 83,42 34,23 56,50l-54 44c14,-35 17,-24 -37,-14 13,-34 26,-30 -22,-22l-49 -54 21 34 -2 12 -51 -24z"/>
    <path class="fil1" d="M10327 8344c-19,38 -29,32 26,20 -18,40 -25,31 31,17l40 10 30 15c0,-29 10,-24 -30,-15 17,-37 16,-22 -40,-10 13,-37 21,-29 -31,-17 16,-39 28,-34 -26,-20 68,-43 9,-37 144,-27 86,6 46,14 155,8l47 28 12 71c-63,13 -122,9 -202,-8l-30 29 -270 -36 30 78 74 21c-6,33 -13,23 37,14l39 29c-10,34 -14,21 44,16 0,-36 10,-27 -44,-16 -13,-31 43,-19 -39,-29 2,-31 10,-22 -37,-14l-41 -46c-2,-6 -5,-8 -8,-11 180,-9 325,-5 340,111l-29 13 -126 -10c0,35 -30,29 102,18 7,0 16,-5 24,-8 48,13 43,22 29,-13 22,-20 52,47 28,-49 -16,-58 5,1 -41,-43 147,-10 86,-5 120,-46 72,14 28,10 17,-31 -11,-37 -7,-26 -29,-40 -14,-31 52,-28 -47,-28 -49,-27 -29,-29 -117,-39 -78,-8 -137,-4 -213,9 -24,121 -10,11 31,49z"/>
   </g>
   <g>
    <path class="fil2" d="M11273 16298c23,38 -11,34 172,96 18,6 108,29 123,30 132,12 47,13 86,-13 60,-58 -54,-452 -56,-580 194,-44 323,-88 433,-199 217,-220 221,-246 69,-287 -55,98 -129,185 -222,256 -145,110 -173,93 -373,163 -33,174 74,400 57,604 -116,-12 -191,-44 -289,-70z"/>
    <path class="fil2" d="M14308 16510c52,-85 50,-222 63,-340 22,-208 5,-168 211,-237 42,-87 95,-201 -57,-227 -37,208 24,133 -208,194l-97 591 88 19z"/>
    <path class="fil2" d="M13736 16734c-112,24 -69,-14 -85,106 -29,205 33,150 -130,287 -4,3 -10,10 -13,13 -4,2 -10,8 -14,13 110,-42 135,-53 170,-141 29,-75 24,-134 31,-214 276,9 608,85 861,10 -59,56 -45,-67 -43,-104 2,-80 -17,-100 -103,-119 -1,76 8,132 -64,171 -55,38 -487,-5 -610,-22z"/>
    <path class="fil2" d="M18878 16027c-38,78 -82,82 -151,126 -80,51 -59,77 -180,112 -55,47 -49,41 -136,73 -35,56 -171,98 -171,98 -3,-4 -13,5 -19,9 471,39 413,-197 506,-254 62,-37 232,-83 299,-104 216,-69 158,-65 266,-50 -145,-98 -206,-83 -414,-10z"/>
    <path class="fil2" d="M14800 14173c44,97 55,191 0,287 -51,90 -129,127 -167,199l90 94c160,-271 136,-40 203,-398 3,2 6,6 7,8l52 55c4,3 14,16 17,13 2,-4 11,9 17,13l-158 -309c-31,-55 -11,-13 -41,-71l-82 -122c10,67 19,58 51,124 15,32 21,41 24,57 13,84 11,18 -13,50z"/>
    <path class="fil2" d="M10396 16009c61,73 242,133 357,131 71,-62 79,-109 138,-185 168,-218 36,-123 173,-183 -49,-56 -49,-46 -159,-52l-238 344c-120,6 -195,-28 -271,-55z"/>
    <path class="fil2" d="M11969 16478c149,85 170,107 418,119 169,-230 48,-245 212,-298 6,3 17,4 20,6 4,1 16,6 20,8 4,1 15,15 19,11 3,-5 12,9 18,14 -37,-84 -70,-112 -214,-111 -79,67 -108,207 -153,291 -142,-2 -228,-20 -340,-40z"/>
    <path class="fil2" d="M13821 15026c-46,47 13,-55 -21,35 -19,48 -2,0 -3,36l273 -6c26,-168 -65,-382 216,-286 -86,-88 -73,-119 -281,-91 -16,58 -13,128 -16,196 -5,111 -20,109 -168,116z"/>
    <path class="fil2" d="M11260 15486c-4,-5 -13,-20 -14,-25 -22,-89 178,-193 159,-335l-87 -35c-54,79 -197,273 -203,361l145 34z"/>
    <path class="fil2" d="M14077 14446c9,-68 -15,-160 49,-188 65,-27 219,-7 289,8 -82,-153 -383,-91 -414,-40 -21,32 -14,27 -16,63 -6,121 6,136 92,157z"/>
    <path class="fil2" d="M12668 15971c-8,-44 -1,-79 22,-127 33,-69 26,-63 130,-69l-4 -70c-169,-19 -186,-44 -231,83 -46,128 -85,157 83,183z"/>
    <path class="fil2" d="M19318 16025c62,142 292,37 446,-30 -34,-67 -16,-53 -112,-95 -18,60 34,13 -50,55 -21,10 -67,20 -96,29 -86,28 -84,35 -188,41z"/>
    <path class="fil2" d="M15184 16073c12,-61 23,-67 51,-107 100,-19 192,-38 304,-3l34 10 -34 -10c-104,-129 -286,-104 -442,-41 -11,109 -24,100 87,151z"/>
    <path class="fil2" d="M14537 15027c20,29 24,35 44,73 138,6 310,11 416,-18l-101 -135 -14 78 -345 2z"/>
   </g>
   <g>
    <path class="fil3" d="M12520 8286c57,15 57,8 60,50 -56,-6 -64,-11 -60,-50zm-3716 -1183l1899 476c420,136 921,277 1314,451 164,72 224,121 406,188l-155 200c-34,109 -15,58 45,106l86 -188c114,-8 37,-17 116,13 6,2 47,27 49,29l58 45 134 -59 51 9c-17,-46 -37,-65 -51,-9 -153,-7 -60,28 -135,-31 -3,-2 -12,-39 -12,-39 26,-79 -71,25 45,-44 -28,-38 35,-31 -32,-32 28,-35 33,-22 60,-58l84 18 -25 79 -37 5c8,-36 15,-26 -38,-18 0,32 -10,23 38,18 20,33 -52,20 57,32 26,-105 -13,-17 80,-55 15,3 23,61 26,-22 34,-21 46,32 26,-48 -38,9 -25,-21 -26,48 -85,-39 -60,47 -74,-57l-102 -35c-5,-3 -14,-8 -18,-11 -5,-2 -14,-6 -19,-11 109,-94 219,-121 326,-177 90,-47 92,-69 250,-94 -41,-29 2,-113 -242,18 -73,38 -151,74 -211,106l-219 155c-4,3 -9,7 -13,10l-111 85c-46,-33 -35,-31 -69,-57 -22,-16 -59,-40 -86,-56 -173,-102 -420,-190 -616,-266 -288,-111 -590,-191 -895,-281l-447 -126c-168,-50 -325,-86 -483,-127l-991 -237 -43 47zm4445 1139c179,-2 145,42 101,117 -159,-4 -272,29 -397,-28 49,15 33,16 24,-22 54,9 44,19 44,-16 -59,-3 -58,-17 -44,16 -54,-9 -44,-15 -24,22 -41,17 -57,-51 -36,33 146,32 366,18 504,-6 3,151 -12,223 -144,352 -4,4 -8,9 -12,12l-95 71c-112,63 -370,172 -581,146 42,12 2,6 25,-25 -182,39 -98,69 -374,59l-30 -66c-2,89 8,52 30,66 27,33 60,33 164,34 314,1 524,-18 789,-158l184 -157c292,-335 67,-724 11,-974 -127,19 -80,27 -204,41l169 53c30,147 90,282 81,446l-100 -33c-67,-4 -66,6 -85,17zm-1053 480c59,-33 -6,18 64,-43 5,-5 20,-19 24,-24 33,-36 2,5 28,-39l40 -36 -40 36c-48,-21 1,11 -24,-35 -39,-71 53,5 -58,-85l-34 226z"/>
    <path class="fil3" d="M9768 7787l-107 -13c37,-4 -45,-38 43,-13 59,17 -5,20 64,26zm-143 84l134 23c4,-39 -29,-32 15,-74 89,-86 -43,4 42,-27 77,65 71,70 28,155 41,-121 -26,-48 107,-79 119,-29 91,-2 152,-80l-102 -16c107,-4 121,-20 116,-94 -105,-7 -51,-19 -126,21 -3,1 -40,30 -44,33 -54,34 38,-3 -57,30 14,-70 10,-55 58,-95 6,-64 9,-45 51,-79 4,-3 14,-5 17,-14 4,-9 13,-9 19,-14l-61 -9c-6,-1 -18,-4 -25,-5 -5,-2 -15,-6 -19,-7 -5,-1 -12,-5 -17,-8 19,-38 23,-27 -23,-17 -67,16 14,-31 -47,27l70 -10c7,33 10,59 13,86 -161,-21 65,3 -68,-14 -10,-1 -23,-10 -28,-5 -5,5 -20,-4 -26,-7 -6,-2 -35,-16 -42,-21l-1 34c-7,-3 -16,-7 -20,-9l-60 -21c-58,-23 -6,16 -57,-33 35,-19 -9,-11 51,-19 2,0 69,7 70,7 -70,-39 -74,-65 -158,-14 -1,32 26,27 36,85l-8 245c11,97 -39,-31 10,25zm411 -246c-53,0 -38,-8 -30,32 -62,-1 -52,-14 -52,23 63,-1 55,12 52,-23l30 -32zm-391 355c147,43 116,-26 156,61 2,-44 9,-41 43,-93 -266,64 -32,-15 -200,-36 -28,-3 -34,-33 -52,17 -30,86 -17,22 53,51z"/>
    <path class="fil3" d="M8818 8988c-29,-94 9,18 -17,-58l-71 -36c-15,27 -31,55 -42,85l-29 75c-54,-97 7,-46 -83,-80 -60,37 -48,-9 -75,141l-33 -44c-29,-35 -13,-18 -36,-35 6,-31 17,-24 -26,-24 -7,39 -23,37 26,24l27 72 -37 31 -10 -31 -45 -8c15,-37 28,-33 -24,-22 13,-34 20,-27 -30,-18 13,-37 26,-32 -25,-24l-12 -43c49,9 41,15 26,-19l109 26c-29,-38 31,-26 -59,-45 -106,-22 -37,4 -50,19 -56,-14 -46,-20 -26,19 -44,19 -19,-9 -14,29 5,45 -16,10 26,14 -14,38 -28,33 25,24 -13,35 -21,27 30,18 -11,34 -23,29 24,22l5 37 50 2c21,21 -18,7 44,37 49,-20 111,-28 150,-77 -41,73 -88,46 -95,148 54,-6 56,49 169,-122l128 -137z"/>
    <path class="fil3" d="M10144 8333c-10,38 -4,36 -35,68 -19,20 -34,14 -59,57 8,36 23,32 -20,30 -56,91 -29,23 -93,105l-23 22 36 27 13 -30c-11,-33 -23,-27 24,-23l39 -61c48,-20 151,-190 451,-352 57,54 22,15 70,33 -18,34 -28,28 23,22 -12,36 -19,28 32,16l34 15c2,39 -36,21 51,36 -37,-43 50,-17 -51,-36 10,-35 16,-26 -34,-15 6,-30 14,-22 -32,-16 10,-37 25,-35 -23,-22l175 1c-55,-63 -108,-6 -217,-50 87,-35 155,-34 253,-15l-51 -55c79,-9 21,0 73,-13l40 -16c-166,8 -287,29 -417,87 -112,50 -169,103 -259,185z"/>
   </g>
   <g>
    <path class="fil4" d="M13700 13557c263,26 558,182 581,365 273,30 442,100 519,251 24,-32 26,34 13,-50 -3,-16 -9,-25 -24,-57 -32,-66 -41,-57 -51,-124 -2,-59 -131,-327 -164,-400 -63,-138 -117,-277 -157,-430 -51,-193 -42,-349 -166,-407 -115,-53 -367,-137 -569,-131 -17,172 -35,864 18,983z"/>
    <path class="fil4" d="M15184 16073c123,30 199,19 336,30 131,10 216,38 323,62l-28 -200 -242 8 -34 -10c-112,-35 -204,-16 -304,3 -28,40 -39,46 -51,107z"/>
    <path class="fil4" d="M12756 13784c-234,102 -200,285 43,349 55,-77 27,-261 13,-363l-56 14z"/>
    <path class="fil4" d="M14077 14446c204,2 409,-7 338,-180 -70,-15 -224,-35 -289,-8 -64,28 -40,120 -49,188z"/>
    <path class="fil4" d="M20721 14134l0 -363c-274,56 -277,317 0,363z"/>
    <path class="fil4" d="M21637 14119l38 -15 28 -20c-2,-26 -11,-20 28,-20l22 -19c28,-72 31,-110 -5,-182l-22 -21 -26 -22 -35 -14 -36 -15c-70,-8 -47,-27 -52,190 -5,192 -7,126 60,138z"/>
    <path class="fil4" d="M12668 15971l155 27 -3 -223c-104,6 -97,0 -130,69 -23,48 -30,83 -22,127z"/>
    <path class="fil4" d="M13671 13925l195 -1c-37,-71 -76,-100 -155,-135 -66,27 -36,64 -40,136z"/>
   </g>
   <g>
    <path class="fil5" d="M8533 8223l44 198c-79,-12 -51,-7 -101,-36l-208 -124c-85,-42 -228,-116 -347,-120l4 42c178,-7 461,183 564,251 113,75 114,93 162,215 33,82 93,161 79,245l71 36c26,76 -12,-36 17,58 4,5 21,22 28,28 3,2 14,14 16,11 2,-4 12,7 18,10 109,-27 188,-63 310,-98 127,-37 239,-55 366,-87 51,-85 29,-343 -9,-447 -47,-127 -125,-228 -212,-313 -177,-173 -475,-351 -767,-408 -64,125 -38,389 -35,539z"/>
    <path class="fil5" d="M20719 13533l-38 15c-248,65 -559,170 -584,357 -28,201 290,366 532,397l103 19 -11 -187c-277,-46 -274,-307 0,-363 195,-102 733,-121 908,20l36 15 35 14c39,-3 28,-8 26,22l22 21c36,72 33,110 5,182l-22 19 -28 20c2,29 12,23 -28,20l-38 15c-79,67 -43,103 -51,200l128 -26c110,-23 276,-97 338,-138 83,-55 159,-143 134,-268 -34,-167 -324,-305 -583,-329 -291,-97 -592,-28 -884,-25z"/>
    <path class="fil5" d="M12819 13539l-45 21c-270,21 -608,191 -587,400 19,193 349,325 630,369 16,-82 21,-137 -18,-196 -243,-64 -277,-247 -43,-349 178,-109 759,-127 955,5 79,35 118,64 155,135l415 -2c-23,-183 -318,-339 -581,-365 -297,-72 -563,-54 -881,-18z"/>
    <path class="fil5" d="M12622 8423c-102,15 -78,13 -160,67 -59,38 -68,35 -110,90l-40 36c-26,44 5,3 -28,39 -4,5 -19,19 -24,24 -70,61 -5,10 -64,43l14 185 30 66c276,10 192,-20 374,-59 262,-64 262,-315 193,-541l-51 -9 -134 59z"/>
    <path class="fil5" d="M12893 8169c20,80 8,27 -26,48 -3,83 -11,25 -26,22 3,23 -47,75 148,-17 58,-27 106,-55 153,-86 340,-220 -164,-354 -249,33z"/>
    <path class="fil5" d="M10758 8145c117,22 201,52 346,30l24 -101 -308 -13 -40 16c-52,13 6,4 -73,13l51 55z"/>
    <path class="fil5" d="M13021 8293c0,35 10,25 -44,16 9,38 25,37 -24,22 125,57 238,24 397,28 44,-75 78,-119 -101,-117 -125,1 -128,32 -228,51z"/>
    <path class="fil5" d="M10380 8092c66,-64 245,-208 70,-275 -162,44 -91,164 -70,275z"/>
    <path class="fil5" d="M10612 8037c119,-19 352,-113 253,-187 -67,-50 -132,10 -165,41 -58,54 -76,78 -88,146z"/>
    <path class="fil5" d="M10088 8579c44,80 160,149 329,133 63,-134 -132,-123 -329,-133z"/>
    <path class="fil5" d="M10353 8364c52,-12 44,-20 31,17 56,-12 57,-27 40,10 40,-9 30,-14 30,15l29 10c80,17 139,21 202,8l-12 -71 -47 -28c-109,6 -69,-2 -155,-8 -135,-10 -76,-16 -144,27 54,-14 42,-19 26,20z"/>
    <path class="fil5" d="M10119 8060c37,14 32,-32 33,36 30,31 69,69 94,94 43,-57 39,-162 3,-230 -50,0 -38,7 -25,-28 -143,-3 -40,1 -82,15 -26,36 -19,69 -23,113z"/>
    <path class="fil5" d="M10287 8508c47,-8 39,-17 37,14 82,10 26,-2 39,29 54,-11 44,-20 44,16l16 -2 126 10 29 -13c-15,-116 -160,-120 -340,-111 3,3 6,5 8,11l41 46z"/>
    <path class="fil5" d="M7925 8282l-7 184c49,-10 25,2 63,-26 79,-59 130,-124 64,-198 -70,3 -84,13 -120,40z"/>
    <path class="fil5" d="M9946 8096l17 113 9 35c54,-10 33,-14 36,32l15 1c49,0 35,-7 21,30l52 18 -9 -224c-77,-14 -63,-16 -141,-5z"/>
    <path class="fil5" d="M11304 8608l95 6c-8,-20 -16,-40 -27,-60 -2,-4 -9,-6 -11,-16 -2,-9 -8,-10 -12,-15 -60,-17 -44,-23 -125,-31 19,74 30,39 52,115l-167 -61c16,72 54,109 140,131l36 -47c48,-68 -34,6 19,-22z"/>
    <path class="fil5" d="M10570 8231c46,-6 38,-14 32,16 50,-11 44,-20 34,15 101,19 14,-7 51,36 94,52 109,50 198,-1 -17,-76 -52,-83 -163,-87l-175 -1c48,-13 33,-15 23,22z"/>
    <path class="fil5" d="M11487 8387l150 -33 7 -65c-112,18 -124,28 -202,45 37,-69 52,-25 51,-112 -103,17 -92,26 -129,112 86,30 19,-51 123,53z"/>
    <path class="fil5" d="M13206 8550c-8,-55 -3,-66 -72,-86 -63,-19 -131,-15 -199,-10 39,62 160,119 271,96z"/>
    <path class="fil5" d="M11626 8536c56,-14 55,-28 42,9l78 5c-8,-33 -16,-24 33,-19l1 -46c-49,7 -42,16 -35,-17 -49,10 -43,20 -38,-12l-65 -15c-33,0 -19,2 -61,-7 -5,-1 -17,-1 -21,-8 -3,-6 -13,-6 -20,-9l-43 -3c28,22 39,39 66,67 25,25 5,5 37,33l26 22z"/>
    <path class="fil5" d="M8276 8993l12 43c51,-8 38,-13 25,24 50,-9 43,-16 30,18 52,-11 39,-15 24,22l45 8 10 31 37 -31 -27 -72c-49,13 -33,15 -26,-24l5 -12 -109 -26c15,34 23,28 -26,19z"/>
    <path class="fil5" d="M10975 8608c49,92 5,99 178,124 -31,-84 -58,-110 -178,-124z"/>
    <path class="fil5" d="M11055 8448l65 -32c-12,-67 -17,-28 34,-43 -2,-101 -9,-54 -43,-82 -39,18 -34,-35 -59,64 -6,24 1,68 3,93z"/>
    <path class="fil5" d="M10893 8401c5,83 -28,93 68,91 14,-80 58,-56 14,-137 -77,17 -47,-6 -82,46z"/>
    <path class="fil5" d="M11381 8501l49 54c48,-8 35,-12 22,22 54,-10 51,-21 37,14l54 -44c-22,-27 27,-8 -56,-50 -56,-28 -27,-34 -101,-19l-5 23z"/>
    <path class="fil5" d="M11260 8381c-20,-39 -33,-31 23,-31l-8 -2 27 -37 6 -73c-49,3 -41,12 -38,-19l-29 13c-41,77 -51,94 19,149z"/>
    <path class="fil5" d="M12654 8250l12 -6c53,-8 46,-18 38,18l37 -5 25 -79 -84 -18c-27,36 -32,23 -60,58 67,1 4,-6 32,32z"/>
    <path class="fil5" d="M9762 7571l-17 -41c-1,0 -68,-7 -70,-7 -60,8 -16,0 -51,19 51,49 -1,10 57,33l60 21c4,2 13,6 20,9l1 -34z"/>
    <path class="fil5" d="M9912 7975c76,-6 113,-13 136,-59 -80,-1 -8,-18 -84,21 -53,26 -34,14 -52,38z"/>
    <path class="fil5" d="M12580 8336c-3,-42 -3,-35 -60,-50 -4,39 4,44 60,50z"/>
    <path class="fil5" d="M9661 7774l107 13c-69,-6 -5,-9 -64,-26 -88,-25 -6,9 -43,13z"/>
   </g>
   <g>
    <path class="fil6" d="M10975 8608c120,14 147,40 178,124 -173,-25 -129,-32 -178,-124zm374 -85l51 24 2 -12 -21 -34 5 -23 -43 -15c-69,-23 -64,-22 -132,3l-185 81c-60,32 -105,54 -191,61 76,-139 -88,101 46,-45 60,-65 -61,-42 12,-162 35,-52 5,-29 82,-46 44,81 0,57 -14,137l117 -2c-56,-2 -15,7 -23,-42 -2,-25 -9,-69 -3,-93 25,-99 20,-46 59,-64 34,28 41,-19 43,82 11,65 13,26 -34,43l46 21c4,-3 7,-8 10,-9 2,-2 9,-7 12,-9l190 -38c-70,-34 -29,-7 -76,-70 20,46 37,37 -27,37l8 2c9,48 34,52 -23,31 -58,29 115,31 -79,23 -8,-35 -23,-71 -12,-108 28,-93 54,-57 72,-64 11,-21 -16,-34 29,-13 63,-15 57,-26 38,19l65 30c65,-120 128,-54 169,-42 -2,4 -48,76 -49,77 118,-52 58,-26 108,-25 5,0 18,9 22,4 3,-5 15,3 21,7 63,23 44,-72 45,26 1,51 19,39 -52,39l-150 33 -57 19 67 8 43 3c49,2 108,-12 102,24l65 15c51,-9 47,-20 38,12 59,-10 56,-22 35,17l-1 46c20,42 28,33 -33,19 -23,12 3,11 -48,10 -42,0 -42,19 -30,-15 -53,11 -50,24 -42,-9l-54 -25c5,43 -16,64 -60,108l-23 -28c-56,13 -53,25 -37,-14 -55,13 -41,16 -22,-22 0,6 -3,22 -7,33 -2,2 -10,16 -11,12 -1,-3 -9,9 -13,14 -4,5 -12,11 -17,12 -5,1 -16,3 -21,4 -57,5 -5,43 -57,-22 -53,28 29,-46 -19,22l-36 47c-86,-22 -124,-59 -140,-131l167 61c-22,-76 -33,-41 -52,-115 81,8 65,14 125,31zm-1261 56c197,10 392,-1 329,133 -169,16 -285,-53 -329,-133zm3118 -29c-111,23 -232,-34 -271,-96 68,-5 136,-9 199,10 69,20 64,31 72,86zm-2580 -225c99,0 33,-3 47,28 22,14 18,3 29,40 11,41 55,45 -17,31 -34,41 27,36 -120,46 46,44 25,-15 41,43 24,96 -6,29 -28,49 14,35 19,26 -29,13 -8,3 -17,8 -24,8 -132,11 -102,17 -102,-18l-16 2c-58,5 -54,18 -44,-16l-39 -29c-50,9 -43,19 -37,-14l-74 -21 -30 -78 270 36 30 -29 -29 -10 -30 -15 -40 -10c-56,14 -49,23 -31,-17 -55,12 -45,18 -26,-20 -41,-38 -55,72 -31,-49 76,-13 135,-17 213,-9 88,10 68,12 117,39zm-600 203c-11,82 24,58 -39,61 7,29 17,22 -24,23l-13 30 -59 14 23 -41c-13,-28 -19,-19 23,-22l-28 -86c-84,-86 14,-20 -117,-56l4 346 254 -24c286,19 677,-26 1031,-5 188,11 886,29 928,151l16 89c10,54 12,76 47,121 81,56 1644,150 1553,-969 -13,-160 -67,-461 -171,-579 -381,96 -785,326 -992,476 -465,-161 -646,-272 -1316,-482l-1445 -401 -820 -170 -34 52 991 237c158,41 315,77 483,127l447 126c305,90 607,170 895,281 196,76 443,164 616,266 27,16 64,40 86,56 34,26 23,24 69,57l111 -85c4,-3 9,-7 13,-10l219 -155c60,-32 138,-68 211,-106 244,-131 201,-47 242,-18 -158,25 -160,47 -250,94 -107,56 -217,83 -326,177 5,5 14,9 19,11 4,3 13,8 18,11l102 35c14,104 -11,18 74,57 1,-69 -12,-39 26,-48 85,-387 589,-253 249,-33 -47,31 -95,59 -153,86 -195,92 -145,40 -148,17 -93,38 -54,-50 -80,55 -109,-12 -37,1 -57,-32 -48,5 -38,14 -38,-18l-12 6c-116,69 -19,-35 -45,44 0,0 9,37 12,39 75,59 -18,24 135,31 14,-56 34,-37 51,9 69,226 69,477 -193,541 -23,31 17,37 -25,25 211,26 469,-83 581,-146l95 -71c4,-3 8,-8 12,-12 132,-129 147,-201 144,-352 -138,24 -358,38 -504,6 -21,-84 -5,-16 36,-33 -20,-37 -30,-31 24,-22 -14,-33 -15,-19 44,-16 100,-19 103,-50 228,-51 19,-11 18,-21 85,-17l100 33c9,-164 -51,-299 -81,-446l-169 -53c124,-14 77,-22 204,-41 56,250 281,639 -11,974l-184 157c-265,140 -475,159 -789,158 -104,-1 -137,-1 -164,-34 -22,-14 -32,23 -30,-66l-14 -185 34 -226c111,90 19,14 58,85 25,46 -24,14 24,35l40 -36c42,-55 51,-52 110,-90 82,-54 58,-52 160,-67l-58 -45c-2,-2 -43,-27 -49,-29 -79,-30 -2,-21 -116,-13l-86 188c-60,-48 -79,3 -45,-106l155 -200c-182,-67 -242,-116 -406,-188 -393,-174 -894,-315 -1314,-451l-1899 -476c-70,92 -198,337 -202,457 179,0 395,115 551,151l37 16c3,2 13,6 17,9 4,2 12,6 16,9 54,34 14,0 55,44 23,10 22,-5 36,19 51,15 29,3 79,30l96 87c3,4 6,10 9,14l24 43c5,-4 10,-18 12,-14 1,3 8,-11 10,-14l81 -83c-49,-56 1,72 -10,-25l8 -245c-10,-58 -37,-53 -36,-85 84,-51 88,-25 158,14l17 41c7,5 36,19 42,21 6,3 21,12 26,7 5,-5 18,4 28,5l-15 -62c61,-58 -20,-11 47,-27 46,-10 42,-21 23,17 5,3 12,7 17,8 4,1 14,5 19,7 7,1 19,4 25,5l61 9 35 39c-26,28 25,20 -34,25l-30 32c3,35 11,22 -52,23l-6 -12c-48,40 -44,25 -58,95 95,-33 3,4 57,-30 4,-3 41,-32 44,-33 75,-40 21,-28 126,-21 5,74 -9,90 -116,94l102 16c26,93 -89,14 -22,120l126 17c4,1 12,3 17,6 45,-13 26,-13 25,28 36,68 40,173 -3,230 -25,-25 -64,-63 -94,-94 -37,85 -37,150 -8,237 90,-82 147,-135 259,-185 130,-58 251,-79 417,-87l308 13 -24 101c-145,22 -229,-8 -346,-30 -98,-19 -166,-20 -253,15 109,44 162,-13 217,50 111,4 146,11 163,87 -89,51 -104,53 -198,1 -87,-15 -49,3 -51,-36l-34 -15c-51,12 -44,20 -32,-16 -51,6 -41,12 -23,-22 -48,-18 -13,21 -70,-33 -300,162 -403,332 -451,352zm354 -436c-21,-111 -92,-231 70,-275 175,67 -4,211 -70,275zm232 -55c12,-68 30,-92 88,-146 33,-31 98,-91 165,-41 99,74 -134,168 -253,187z"/>
    <path class="fil6" d="M20736 15582l833 0c179,-26 128,-99 127,-248 -2,-211 26,-812 -24,-933l-108 -13 -843 2c-100,21 -114,15 -126,93l2 871c-2,141 -46,204 139,228z"/>
    <path class="fil6" d="M12733 15408c114,53 219,43 339,78 98,27 204,84 264,116 41,-17 -40,-2 66,-17 38,-5 40,-4 78,-6 51,-1 131,2 184,2 164,-22 139,-68 137,-188 -1,-99 0,-197 -4,-296 1,-36 -16,12 3,-36 34,-90 -25,12 21,-35 -290,13 -233,-54 -234,-233 0,-134 -5,-270 -1,-403l-765 1c-163,25 -126,72 -123,208 3,111 -38,745 35,809z"/>
    <path class="fil6" d="M8276 8993c-20,-39 -30,-33 26,-19 13,-15 -56,-41 50,-19 90,19 30,7 59,45l-5 12c43,0 32,-7 26,24 23,17 7,0 36,35l33 44c27,-150 15,-104 75,-141 90,34 29,-17 83,80l29 -75c11,-30 27,-58 42,-85 14,-84 -46,-163 -79,-245 -48,-122 -49,-140 -162,-215 -103,-68 -386,-258 -564,-251 -135,163 31,622 137,744 136,155 278,244 479,318 166,62 54,26 116,142 -16,-122 -11,-119 73,-191 64,-55 94,-101 150,-159 -6,-3 -16,-14 -18,-10 -2,3 -13,-9 -16,-11 -7,-6 -24,-23 -28,-28l-128 137c-113,171 -115,116 -169,122 7,-102 54,-75 95,-148 -39,49 -101,57 -150,77 -62,-30 -23,-16 -44,-37l-50 -2 -5 -37c-47,7 -35,12 -24,-22 -51,9 -43,17 -30,-18 -53,9 -39,14 -25,-24 -42,-4 -21,31 -26,-14 -5,-38 -30,-10 14,-29zm-304 -456c29,-72 108,-114 208,-81 -31,59 -85,78 -208,81zm-47 -255c36,-27 50,-37 120,-40 66,74 15,139 -64,198 -38,28 -14,16 -63,26l7 -184z"/>
    <path class="fil6" d="M8568 7684c292,57 590,235 767,408 87,85 165,186 212,313 38,104 60,362 9,447l110 -16 60 -13c17,-143 34,-374 -25,-507 -58,-130 -5,-105 14,-123l48 107c32,-73 -27,-52 108,-59 70,39 53,9 70,78 23,33 9,130 89,169 -9,-33 -21,-25 20,-30l-6 -151 -21 -30 -15 -1c-70,0 -60,12 -36,-32l-9 -35c-27,-20 -28,6 -40,-50 -25,-121 -29,-34 23,-63 25,-34 7,-23 63,-45 90,34 30,-10 78,50l32 -41 -82 -85 -160 33c-5,3 -12,6 -17,9l-44 38c-54,0 -38,5 -15,-14 -40,-87 -9,-18 -156,-61 -59,35 -112,-52 -37,45 57,5 0,-1 29,38 11,45 35,65 35,67 19,100 17,36 -33,78l-15 -54 -124 -126 5 -3c-123,-50 -67,-74 -193,-150 -113,-69 -66,-7 -100,-78 -107,-25 -156,-77 -304,-125 -101,-32 -187,-65 -324,-76l-16 88z"/>
    <path class="fil6" d="M13254 11924c-365,49 -222,373 83,330 286,-40 223,-370 -83,-330z"/>
    <path class="fil6" d="M21359 12016c-69,-155 -374,-102 -426,-1 -44,86 -11,192 127,223 41,9 114,17 167,4 75,-17 13,-1 70,-27 6,-3 28,-15 33,-17l36 -15c0,-59 14,-121 -7,-167z"/>
    <path class="fil6" d="M7921 8141c119,4 262,78 347,120l208 124c50,29 22,24 101,36l-44 -198c-188,-58 -358,-154 -583,-193l-29 111z"/>
   </g>
   <g>
    <path class="fil7" d="M9701 7174l1445 401c670,210 851,321 1316,482 207,-150 611,-380 992,-476 104,118 158,419 171,579 91,1119 -1472,1025 -1553,969 -35,-45 -37,-67 -47,-121l-16 -89c-42,-122 -740,-140 -928,-151 -354,-21 -745,24 -1031,5l-226 41 -98 9 -60 13 -110 16c-127,32 -239,50 -366,87 -122,35 -201,71 -310,98 -56,58 -86,104 -150,159 -84,72 -89,69 -73,191l52 342c1130,139 931,-442 1134,-660 164,-175 651,-51 424,200 -54,60 -583,434 -266,521 380,105 649,-720 1352,-271l883 598c82,60 197,181 300,206 29,-318 -334,-614 -345,-908 -7,-192 196,-288 454,-204 224,73 228,200 339,362 162,238 517,496 807,613 495,199 788,150 1382,123 3759,-142 5885,-3452 2954,-5563 -804,-579 -1957,-933 -3158,-953 -598,-11 -1054,33 -1466,245 -1303,670 -970,1981 425,2360 455,124 1202,139 1240,-248 34,-345 -441,-462 -743,-383 -155,41 -156,78 -207,184 -715,75 -878,-889 314,-1076 763,-120 1634,182 2067,634 451,470 451,1148 -5,1606l-350 277c-139,78 -274,153 -466,215 -273,86 -945,220 -1246,108 -67,-37 -637,-1265 -3388,-278 36,-220 623,-741 895,-360 388,4 510,-315 236,-430 -266,-110 -709,-45 -1005,-1 -503,74 -1264,286 -1569,528z"/>
    <path class="fil7" d="M12823 15998l-155 -27c-168,-26 -129,-55 -83,-183 45,-127 62,-102 231,-83 109,28 220,49 219,151 -1,92 -87,133 -212,142zm-854 480c112,20 198,38 340,40 45,-84 74,-224 153,-291 144,-1 177,27 214,111 43,82 73,252 153,284 154,43 319,85 412,49 44,-116 -138,-270 -121,-409 113,-92 240,-107 309,-269 80,-188 -4,-255 -93,-391 -60,-32 -166,-89 -264,-116 -120,-35 -225,-25 -339,-78 -174,2 -211,-50 -415,-38 -82,145 -156,389 -217,561 -47,136 -213,440 -132,547z"/>
    <path class="fil7" d="M16121 15743c68,199 276,866 345,957 122,6 283,-24 374,-53 21,-162 -117,-351 -129,-522 90,7 441,167 549,212 154,65 362,195 539,151 25,-99 -117,-458 -158,-573 -176,-496 -106,-628 -583,-475 -15,184 140,347 129,522 -284,-35 -1101,-585 -1085,-284 0,1 18,64 19,65z"/>
    <path class="fil7" d="M14077 14446c-86,-21 -98,-36 -92,-157 2,-36 -5,-31 16,-63 31,-51 332,-113 414,40 71,173 -134,182 -338,180zm-491 -56c-4,133 1,269 1,403 1,179 -56,246 234,233 148,-7 163,-5 168,-116 3,-68 0,-138 16,-196 208,-28 195,3 281,91 87,95 92,179 251,222l345 -2 14 -78c-77,-67 -126,-110 -173,-194l-90 -94c38,-72 116,-109 167,-199 55,-96 44,-190 0,-287 -77,-151 -246,-221 -519,-251l-415 2 -195 1c-125,33 -90,95 -88,210 2,85 3,170 3,255z"/>
    <path class="fil7" d="M10396 16009c76,27 151,61 271,55l238 -344c110,6 110,-4 159,52 43,79 33,216 45,317 17,138 26,154 164,209 98,26 173,58 289,70 17,-204 -90,-430 -57,-604 200,-70 228,-53 373,-163 93,-71 167,-158 222,-256 -43,-85 -224,-141 -368,-147 -132,133 -143,313 -472,288l-145 -34c6,-88 149,-282 203,-361 -36,-71 -193,-146 -345,-143 -90,63 -301,408 -379,525 -65,100 -119,181 -181,279 -60,94 -190,201 -17,257z"/>
    <path class="fil7" d="M15715 16747c130,-89 254,-93 293,-258 40,-171 -63,-246 -165,-324 -107,-24 -192,-52 -323,-62 -137,-11 -213,0 -336,-30 -111,-51 -98,-42 -87,-151 156,-63 338,-88 442,41l34 10 242 -8 96 -32c11,-111 -65,-145 -125,-217 -227,-85 -344,-136 -671,-85 -202,31 -402,144 -424,302 -58,418 484,388 719,406 181,14 196,32 175,149 -112,35 -286,78 -417,3 -136,-79 -235,-78 -445,-36 -20,162 176,281 346,318 268,58 409,13 646,-26z"/>
    <path class="fil7" d="M18542 15582c99,22 90,29 163,70 76,44 82,30 97,115l-257 55 -3 -240zm-131 756c87,-32 81,-26 136,-73 40,-185 104,-170 331,-238 208,-73 269,-88 414,10l26 -12c104,-6 102,-13 188,-41 29,-9 75,-19 96,-29 84,-42 32,5 50,-55 -100,-113 -579,-357 -747,-466 -225,-132 -550,-400 -695,-302 -93,62 -67,1216 -18,1246 48,30 169,-24 219,-40z"/>
    <path class="fil7" d="M15139 14683l-22 10c-151,125 153,271 254,312 413,57 900,34 947,-272 67,-436 -597,-282 -845,-426 -12,-138 141,-186 322,-134 121,35 73,66 178,85 70,12 359,36 271,-125 -140,-254 -810,-305 -1066,-83 -160,140 -113,375 56,460 232,117 581,45 687,167 -16,109 -206,137 -347,96 -220,-62 6,-98 -435,-90z"/>
    <path class="fil7" d="M13669 16477c-87,18 -62,13 -83,73 -17,49 -12,120 -7,170l157 14c123,17 555,60 610,22 72,-39 63,-95 64,-171 -43,-71 13,-32 -102,-75l-88 -19 97 -591c232,-61 171,14 208,-194 -32,-96 -61,-80 -355,-97l-331 -20c-133,12 -135,84 -119,238 235,57 155,131 129,326 -8,68 -12,149 -25,215 -17,88 -34,99 -155,109z"/>
    <path class="fil7" d="M8967 11116c311,21 642,-256 837,-392l388 -343c-215,19 -687,147 -881,209 -346,111 -503,204 -344,526z"/>
    <path class="fil7" d="M10648 9773c-44,53 0,76 -40,159l-166 1c-202,-421 817,-249 402,89 -403,327 -736,217 -1276,217 -279,0 -527,73 -652,171 -63,50 -350,330 -202,412 93,-59 69,-202 273,-363 114,-90 355,-153 609,-152 360,0 713,68 1023,-55 168,-67 547,-286 375,-501 -131,-163 -633,-228 -676,57 -19,130 83,214 266,205 218,-11 205,-209 64,-240z"/>
    <path class="fil7" d="M11118 11374c95,-2 191,-175 152,-287 -41,-114 -223,-185 -201,-310 16,-98 181,-206 357,-170 163,32 293,262 -14,241 -59,-75 -25,-111 -80,-153 -101,38 -84,120 -63,202 719,190 413,-561 -110,-325 -431,195 17,442 18,586 1,100 -74,129 -80,163 -9,52 -20,18 21,53z"/>
   </g>
   <g>
    <path class="fil8" d="M17058 15440c477,-153 407,-21 583,475 41,115 183,474 158,573 -177,44 -385,-86 -539,-151 -108,-45 -459,-205 -549,-212 12,171 150,360 129,522 -91,29 -252,59 -374,53 -69,-91 -277,-758 -345,-957 -1,-1 -19,-64 -19,-65 -16,-301 801,249 1085,284 11,-175 -144,-338 -129,-522zm-3804 -3516c306,-40 369,290 83,330 -305,43 -448,-281 -83,-330zm8139 240c-39,62 1,23 -56,58 -33,21 -33,19 -88,36 -98,30 -230,6 -284,-29 -77,-51 -104,-130 -70,-199 69,-141 192,-144 384,-129 67,70 214,104 114,263zm-10275 -790c-41,-35 -30,-1 -21,-53 6,-34 81,-63 80,-163 -1,-144 -449,-391 -18,-586 523,-236 829,515 110,325 -21,-82 -38,-164 63,-202 55,42 21,78 80,153 307,21 177,-209 14,-241 -176,-36 -341,72 -357,170 -22,125 160,196 201,310 39,112 -57,285 -152,287zm-2151 -258c-159,-322 -2,-415 344,-526 194,-62 666,-190 881,-209l-388 343c-195,136 -526,413 -837,392zm1681 -1343c141,31 154,229 -64,240 -183,9 -285,-75 -266,-205 43,-285 545,-220 676,-57 172,215 -207,434 -375,501 -310,123 -663,55 -1023,55 -254,-1 -495,62 -609,152 -204,161 -180,304 -273,363 -148,-82 139,-362 202,-412 125,-98 373,-171 652,-171 540,0 873,110 1276,-217 415,-338 -604,-510 -402,-89l166 -1c40,-83 -4,-106 40,-159zm-1939 -44c-434,719 -299,1132 -461,1932 -105,517 -228,412 -277,548 113,33 155,86 309,18 93,-41 460,-467 511,-532 117,13 80,25 191,50 335,77 300,-89 488,-151 67,78 57,56 176,107 231,98 205,251 611,45 83,61 56,95 184,154 88,42 202,65 339,64 221,-1 497,-77 645,-143l948 -475c662,-337 547,-328 1217,-294 417,21 1647,124 1864,405 144,187 -176,236 -401,241 -2318,56 -2236,-233 -2233,697 1,380 7,764 -1,1144l-45 21 45 -21c318,-36 584,-54 881,18 -53,-119 -35,-811 -18,-983 202,-6 454,78 569,131 124,58 115,214 166,407 40,153 94,292 157,430 33,73 162,341 164,400l82 122c30,58 10,16 41,71l158 309c32,85 89,155 120,239l-22 10 22 -10c441,-8 215,28 435,90 141,41 331,13 347,-96 -106,-122 -455,-50 -687,-167 -169,-85 -216,-320 -56,-460 256,-222 926,-171 1066,83 88,161 -201,137 -271,125 -105,-19 -57,-50 -178,-85 -181,-52 -334,-4 -322,134 248,144 912,-10 845,426 -47,306 -534,329 -947,272 14,83 153,274 210,363 84,131 130,209 205,348 60,72 136,106 125,217l-96 32 28 200c102,78 205,153 165,324 -39,165 -163,169 -293,258l12 88c540,105 1909,-94 2494,-390 6,-4 16,-13 19,-9 0,0 136,-42 171,-98 -50,16 -171,70 -219,40 -49,-30 -75,-1184 18,-1246 145,-98 470,170 695,302 -28,-323 -165,-651 -190,-1009 -44,-612 -100,-908 545,-1301 253,-154 1202,-644 1462,-646l-3 1055c-47,-11 -38,-18 -38,15l38 -15c292,-3 593,-72 884,25 -54,-78 -37,-1218 -18,-1276 18,-55 83,-119 105,-179 52,-141 31,-310 -39,-431 -86,-150 -196,-199 -481,-200 -522,-1 -925,26 -1434,36 -228,4 -468,27 -689,19 -907,-34 -2805,-666 -3683,-1016 -74,-29 -147,-53 -232,-87l-176 -68c-47,-25 -17,-4 -40,-31l257 -16c-594,27 -887,76 -1382,-123 -290,-117 -645,-375 -807,-613 -111,-162 -115,-289 -339,-362 -258,-84 -461,12 -454,204 11,294 374,590 345,908 -103,-25 -218,-146 -300,-206l-883 -598c-703,-449 -972,376 -1352,271 -317,-87 212,-461 266,-521 227,-251 -260,-375 -424,-200 -203,218 -4,799 -1134,660z"/>
    <path class="fil8" d="M21569 15582l-833 0c-53,130 -20,773 -20,970 0,328 -65,642 435,650 214,3 340,-87 394,-191 69,-133 44,-1289 24,-1429z"/>
    <path class="fil8" d="M12829 16622c-26,128 -33,378 89,480 147,122 359,122 576,51 4,-5 10,-11 14,-13 3,-3 9,-10 13,-13 163,-137 101,-82 130,-287 16,-120 -27,-82 85,-106l-157 -14c-5,-50 -10,-121 7,-170 21,-60 -4,-55 83,-73l-5 -896c-53,0 -133,-3 -184,-2 -38,2 -40,1 -78,6 -106,15 -25,0 -66,17 89,136 173,203 93,391 -69,162 -196,177 -309,269 -17,139 165,293 121,409 -93,36 -258,-6 -412,-49z"/>
    <path class="fil8" d="M20721 13771l0 363 11 187 -103 -19c113,71 44,-38 92,88l843 -2c47,-100 39,-34 150,-95l-128 26c8,-97 -28,-133 51,-200l38 -15c40,3 30,9 28,-20l28 -20 22 -19 -22 19c-39,0 -30,-6 -28,20l-28 20 -38 15c-67,-12 -65,54 -60,-138 5,-217 -18,-198 52,-190l36 15 35 14 26 22 22 21 -22 -21c2,-30 13,-25 -26,-22l-35 -14 -36 -15c-175,-141 -713,-122 -908,-20z"/>
    <path class="fil8" d="M12756 13784l56 -14c14,102 42,286 -13,363 39,59 34,114 18,196l4 62 765 -1c0,-85 -1,-170 -3,-255 -2,-115 -37,-177 88,-210 4,-72 -26,-109 40,-136 -196,-132 -777,-114 -955,-5z"/>
    <path class="fil8" d="M12820 15775l3 223c125,-9 211,-50 212,-142 1,-102 -110,-123 -219,-151l4 70z"/>
    <path class="fil8" d="M18545 15822l257 -55c-15,-85 -21,-71 -97,-115 -73,-41 -64,-48 -163,-70l3 240z"/>
    <path class="fil8" d="M18547 16265c121,-35 100,-61 180,-112 69,-44 113,-48 151,-126 -227,68 -291,53 -331,238z"/>
   </g>
   <path class="fil9" d="M21366 12183l-36 15c-5,2 -27,14 -33,17 -57,26 5,10 -70,27 -53,13 -126,5 -167,-4 -138,-31 -171,-137 -127,-223 52,-101 357,-154 426,1 21,46 7,108 7,167zm-87 -282c-192,-15 -315,-12 -384,129 -34,69 -7,148 70,199 54,35 186,59 284,29 55,-17 55,-15 88,-36 57,-35 17,4 56,-58 100,-159 -47,-193 -114,-263z"/>
  </g>
 </g>
</svg>
